<svg id="visual" viewBox="0 0 900 400" width="900" height="400" xmlns="http://www.w3.org/2000/svg" xmlns:xlink="http://www.w3.org/1999/xlink" version="1.1"><rect x="0" y="0" width="900" height="400" fill="#001220"></rect><path d="M0 275L21.5 276.8C43 278.7 86 282.3 128.8 276.5C171.7 270.7 214.3 255.3 257.2 251.5C300 247.7 343 255.3 385.8 256.2C428.7 257 471.3 251 514.2 250.7C557 250.3 600 255.7 642.8 259.2C685.7 262.7 728.3 264.3 771.2 262.8C814 261.3 857 256.7 878.5 254.3L900 252L900 401L878.5 401C857 401 814 401 771.2 401C728.3 401 685.7 401 642.8 401C600 401 557 401 514.2 401C471.3 401 428.7 401 385.8 401C343 401 300 401 257.2 401C214.3 401 171.7 401 128.8 401C86 401 43 401 21.5 401L0 401Z" fill="#242440"></path><path d="M0 307L21.5 300.7C43 294.3 86 281.7 128.8 282.8C171.7 284 214.3 299 257.2 305.2C300 311.3 343 308.7 385.8 304C428.7 299.3 471.3 292.7 514.2 289.3C557 286 600 286 642.8 288.2C685.7 290.3 728.3 294.7 771.2 294.2C814 293.7 857 288.3 878.5 285.7L900 283L900 401L878.5 401C857 401 814 401 771.2 401C728.3 401 685.7 401 642.8 401C600 401 557 401 514.2 401C471.3 401 428.7 401 385.8 401C343 401 300 401 257.2 401C214.3 401 171.7 401 128.8 401C86 401 43 401 21.5 401L0 401Z" fill="#4a2c5d"></path><path d="M0 324L21.5 321.8C43 319.7 86 315.3 128.8 315.3C171.7 315.3 214.3 319.7 257.2 317.8C300 316 343 308 385.8 310.5C428.7 313 471.3 326 514.2 325.7C557 325.3 600 311.7 642.8 307C685.7 302.3 728.3 306.7 771.2 313.8C814 321 857 331 878.5 336L900 341L900 401L878.5 401C857 401 814 401 771.2 401C728.3 401 685.7 401 642.8 401C600 401 557 401 514.2 401C471.3 401 428.7 401 385.8 401C343 401 300 401 257.2 401C214.3 401 171.7 401 128.8 401C86 401 43 401 21.5 401L0 401Z" fill="#7c2b6c"></path><path d="M0 342L21.5 341.5C43 341 86 340 128.8 337.5C171.7 335 214.3 331 257.2 332.3C300 333.7 343 340.3 385.8 345.7C428.7 351 471.3 355 514.2 351.5C557 348 600 337 642.8 335.8C685.7 334.7 728.3 343.3 771.2 346.7C814 350 857 348 878.5 347L900 346L900 401L878.5 401C857 401 814 401 771.2 401C728.3 401 685.7 401 642.8 401C600 401 557 401 514.2 401C471.3 401 428.7 401 385.8 401C343 401 300 401 257.2 401C214.3 401 171.7 401 128.8 401C86 401 43 401 21.5 401L0 401Z" fill="#b2206a"></path><path d="M0 371L21.5 368.2C43 365.3 86 359.7 128.8 357.3C171.7 355 214.3 356 257.2 356.2C300 356.3 343 355.7 385.8 355.5C428.7 355.3 471.3 355.7 514.2 359C557 362.3 600 368.7 642.8 367.7C685.7 366.7 728.3 358.3 771.2 355.5C814 352.7 857 355.3 878.5 356.7L900 358L900 401L878.5 401C857 401 814 401 771.2 401C728.3 401 685.7 401 642.8 401C600 401 557 401 514.2 401C471.3 401 428.7 401 385.8 401C343 401 300 401 257.2 401C214.3 401 171.7 401 128.8 401C86 401 43 401 21.5 401L0 401Z" fill="#e11858"></path></svg>