<svg id="visual" viewBox="0 0 900 300" width="900" height="300" xmlns="http://www.w3.org/2000/svg" xmlns:xlink="http://www.w3.org/1999/xlink" version="1.1"><rect x="0" y="0" width="900" height="300" fill="#001220"></rect><path d="M0 101L21.5 102.5C43 104 86 107 128.8 108.2C171.7 109.3 214.3 108.7 257.2 109.3C300 110 343 112 385.8 109.2C428.7 106.3 471.3 98.7 514.2 97.5C557 96.3 600 101.7 642.8 102C685.7 102.3 728.3 97.7 771.2 97.2C814 96.7 857 100.3 878.5 102.2L900 104L900 0L878.5 0C857 0 814 0 771.2 0C728.3 0 685.7 0 642.8 0C600 0 557 0 514.2 0C471.3 0 428.7 0 385.8 0C343 0 300 0 257.2 0C214.3 0 171.7 0 128.8 0C86 0 43 0 21.5 0L0 0Z" fill="#3c31dd"></path><path d="M0 96L21.5 90.5C43 85 86 74 128.8 69.3C171.7 64.7 214.3 66.3 257.2 70.8C300 75.3 343 82.7 385.8 84.2C428.7 85.7 471.3 81.3 514.2 82C557 82.7 600 88.3 642.8 90C685.7 91.7 728.3 89.3 771.2 90C814 90.7 857 94.3 878.5 96.2L900 98L900 0L878.5 0C857 0 814 0 771.2 0C728.3 0 685.7 0 642.8 0C600 0 557 0 514.2 0C471.3 0 428.7 0 385.8 0C343 0 300 0 257.2 0C214.3 0 171.7 0 128.8 0C86 0 43 0 21.5 0L0 0Z" fill="#2f32b5"></path><path d="M0 45L21.5 50.3C43 55.7 86 66.3 128.8 69.8C171.7 73.3 214.3 69.7 257.2 68C300 66.3 343 66.7 385.8 68.7C428.7 70.7 471.3 74.3 514.2 73.2C557 72 600 66 642.8 60.8C685.7 55.7 728.3 51.3 771.2 48.7C814 46 857 45 878.5 44.5L900 44L900 0L878.5 0C857 0 814 0 771.2 0C728.3 0 685.7 0 642.8 0C600 0 557 0 514.2 0C471.3 0 428.7 0 385.8 0C343 0 300 0 257.2 0C214.3 0 171.7 0 128.8 0C86 0 43 0 21.5 0L0 0Z" fill="#2a2f8d"></path><path d="M0 58L21.5 53.2C43 48.3 86 38.7 128.8 34.3C171.7 30 214.3 31 257.2 34.7C300 38.3 343 44.7 385.8 45.2C428.7 45.7 471.3 40.3 514.2 40.5C557 40.7 600 46.3 642.8 45.3C685.7 44.3 728.3 36.7 771.2 37C814 37.3 857 45.7 878.5 49.8L900 54L900 0L878.5 0C857 0 814 0 771.2 0C728.3 0 685.7 0 642.8 0C600 0 557 0 514.2 0C471.3 0 428.7 0 385.8 0C343 0 300 0 257.2 0C214.3 0 171.7 0 128.8 0C86 0 43 0 21.5 0L0 0Z" fill="#272a66"></path><path d="M0 20L21.5 20.2C43 20.3 86 20.7 128.8 23C171.7 25.3 214.3 29.7 257.2 32C300 34.3 343 34.7 385.8 32C428.7 29.3 471.3 23.7 514.2 22C557 20.3 600 22.7 642.8 25.2C685.7 27.7 728.3 30.3 771.2 31.8C814 33.3 857 33.7 878.5 33.8L900 34L900 0L878.5 0C857 0 814 0 771.2 0C728.3 0 685.7 0 642.8 0C600 0 557 0 514.2 0C471.3 0 428.7 0 385.8 0C343 0 300 0 257.2 0C214.3 0 171.7 0 128.8 0C86 0 43 0 21.5 0L0 0Z" fill="#242440"></path></svg>