<svg id="visual" viewBox="0 0 900 300" width="900" height="300" xmlns="http://www.w3.org/2000/svg" xmlns:xlink="http://www.w3.org/1999/xlink" version="1.1"><rect x="0" y="0" width="900" height="300" fill="#161923"></rect><path d="M0 117L21.5 114.8C43 112.7 86 108.3 128.8 101.7C171.7 95 214.3 86 257.2 85.3C300 84.7 343 92.3 385.8 100C428.7 107.7 471.3 115.3 514.2 114.2C557 113 600 103 642.8 97.5C685.7 92 728.3 91 771.2 91.2C814 91.3 857 92.7 878.5 93.3L900 94L900 0L878.5 0C857 0 814 0 771.2 0C728.3 0 685.7 0 642.8 0C600 0 557 0 514.2 0C471.3 0 428.7 0 385.8 0C343 0 300 0 257.2 0C214.3 0 171.7 0 128.8 0C86 0 43 0 21.5 0L0 0Z" fill="#e9c46a"></path><path d="M0 60L21.5 60.2C43 60.3 86 60.7 128.8 61.2C171.7 61.7 214.3 62.3 257.2 68.7C300 75 343 87 385.8 88C428.7 89 471.3 79 514.2 76.8C557 74.7 600 80.3 642.8 82.3C685.7 84.3 728.3 82.7 771.2 80.7C814 78.7 857 76.3 878.5 75.2L900 74L900 0L878.5 0C857 0 814 0 771.2 0C728.3 0 685.7 0 642.8 0C600 0 557 0 514.2 0C471.3 0 428.7 0 385.8 0C343 0 300 0 257.2 0C214.3 0 171.7 0 128.8 0C86 0 43 0 21.5 0L0 0Z" fill="#ebb05d"></path><path d="M0 51L21.5 55.2C43 59.3 86 67.7 128.8 71.3C171.7 75 214.3 74 257.2 70.7C300 67.3 343 61.7 385.8 61.3C428.7 61 471.3 66 514.2 64.7C557 63.3 600 55.7 642.8 51.3C685.7 47 728.3 46 771.2 49.5C814 53 857 61 878.5 65L900 69L900 0L878.5 0C857 0 814 0 771.2 0C728.3 0 685.7 0 642.8 0C600 0 557 0 514.2 0C471.3 0 428.7 0 385.8 0C343 0 300 0 257.2 0C214.3 0 171.7 0 128.8 0C86 0 43 0 21.5 0L0 0Z" fill="#ec9b54"></path><path d="M0 46L21.5 45.2C43 44.3 86 42.7 128.8 43.2C171.7 43.7 214.3 46.3 257.2 46.7C300 47 343 45 385.8 42.3C428.7 39.7 471.3 36.3 514.2 34C557 31.7 600 30.3 642.8 34.2C685.7 38 728.3 47 771.2 50.5C814 54 857 52 878.5 51L900 50L900 0L878.5 0C857 0 814 0 771.2 0C728.3 0 685.7 0 642.8 0C600 0 557 0 514.2 0C471.3 0 428.7 0 385.8 0C343 0 300 0 257.2 0C214.3 0 171.7 0 128.8 0C86 0 43 0 21.5 0L0 0Z" fill="#eb8550"></path><path d="M0 31L21.5 31C43 31 86 31 128.8 28.5C171.7 26 214.3 21 257.2 19.5C300 18 343 20 385.8 22.2C428.7 24.3 471.3 26.7 514.2 26.5C557 26.3 600 23.7 642.8 24.5C685.7 25.3 728.3 29.7 771.2 28.7C814 27.7 857 21.3 878.5 18.2L900 15L900 0L878.5 0C857 0 814 0 771.2 0C728.3 0 685.7 0 642.8 0C600 0 557 0 514.2 0C471.3 0 428.7 0 385.8 0C343 0 300 0 257.2 0C214.3 0 171.7 0 128.8 0C86 0 43 0 21.5 0L0 0Z" fill="#e76f51"></path></svg>
